<svg width="131" height="43" viewBox="0 0 131 43" fill="none" xmlns="http://www.w3.org/2000/svg">
<path d="M126.074 0H4C1.79086 0 0 1.79086 0 4V39C0 41.2091 1.79086 43 4 43H126.074C128.283 43 130.074 41.2091 130.074 39V4C130.074 1.79086 128.283 0 126.074 0Z" fill="black"/>
<path d="M28.6497 21.0955C28.6203 17.7803 31.3306 16.1887 31.4532 16.1111C29.928 13.8575 27.5545 13.5488 26.7077 13.5124C24.6889 13.3061 22.7665 14.7127 21.7432 14.7127C20.7199 14.7127 19.1375 13.5422 17.4636 13.5752C15.2601 13.6082 13.2315 14.8679 12.097 16.859C9.81009 20.866 11.5134 26.8046 13.7398 30.0571C14.8302 31.647 16.1281 33.4383 17.8347 33.3723C19.4792 33.3062 20.1004 32.2991 22.0849 32.2991C24.0694 32.2991 24.6284 33.3723 26.3661 33.3409C28.1332 33.3062 29.2546 31.7163 30.3367 30.1214C31.5856 28.2756 32.1022 26.4893 32.1316 26.3951C32.0923 26.3786 28.6857 25.0595 28.6497 21.0955Z" fill="white"/>
<path d="M25.3853 11.3608C26.2909 10.253 26.9023 8.71261 26.7339 7.17725C25.4294 7.23014 23.8503 8.05559 22.9136 9.16341C22.0751 10.1425 21.3395 11.7109 21.5388 13.215C22.9937 13.3289 24.4796 12.467 25.3853 11.3608Z" fill="white"/>
<path d="M43.3165 32.5254L44.3711 30.0248H49.7202L50.7901 32.5254H52.8686L48.0391 21.7203H46.0828L41.2686 32.5254H43.3165ZM49.0631 28.4503H45.0435L47.0457 23.7269L49.0631 28.4503ZM55.9749 35.52V31.5221C56.6168 32.263 57.488 32.6335 58.5884 32.6335C59.3831 32.6335 60.0938 32.4585 60.7204 32.1086C61.347 31.7588 61.8386 31.2622 62.1953 30.6191C62.5519 29.9759 62.7302 29.2376 62.7302 28.404C62.7302 27.5705 62.5519 26.8347 62.1953 26.1967C61.8386 25.5587 61.347 25.0647 60.7204 24.7148C60.0938 24.365 59.3831 24.19 58.5884 24.19C58.028 24.19 57.516 24.2878 57.0524 24.4833C56.5888 24.6788 56.1991 24.9721 55.8832 25.3632V24.2826H54.0645V35.52H55.9749ZM58.3744 30.9818C57.9159 30.9818 57.5033 30.8763 57.1365 30.6654C56.7697 30.4544 56.4793 30.1534 56.2653 29.7624C56.0514 29.3713 55.9444 28.9186 55.9444 28.404C55.9444 27.8895 56.0514 27.4367 56.2653 27.0457C56.4793 26.6546 56.7697 26.3536 57.1365 26.1427C57.5033 25.9317 57.9159 25.8262 58.3744 25.8262C59.0775 25.8262 59.6557 26.0629 60.1091 26.5363C60.5625 27.0096 60.7892 27.6322 60.7892 28.404C60.7892 29.1758 60.5625 29.7984 60.1091 30.2718C59.6557 30.7451 59.0775 30.9818 58.3744 30.9818ZM66.4784 35.52V31.5221C67.1203 32.263 67.9915 32.6335 69.0919 32.6335C69.8866 32.6335 70.5973 32.4585 71.2239 32.1086C71.8505 31.7588 72.3421 31.2622 72.6987 30.6191C73.0553 29.9759 73.2336 29.2376 73.2336 28.404C73.2336 27.5705 73.0553 26.8347 72.6987 26.1967C72.3421 25.5587 71.8505 25.0647 71.2239 24.7148C70.5973 24.365 69.8866 24.19 69.0919 24.19C68.5315 24.19 68.0195 24.2878 67.5559 24.4833C67.0923 24.6788 66.7026 24.9721 66.3867 25.3632V24.2826H64.568V35.52H66.4784ZM68.8779 30.9818C68.4194 30.9818 68.0067 30.8763 67.6399 30.6654C67.2731 30.4544 66.9828 30.1534 66.7688 29.7624C66.5548 29.3713 66.4478 28.9186 66.4478 28.404C66.4478 27.8895 66.5548 27.4367 66.7688 27.0457C66.9828 26.6546 67.2731 26.3536 67.6399 26.1427C68.0067 25.9317 68.4194 25.8262 68.8779 25.8262C69.5809 25.8262 70.1591 26.0629 70.6125 26.5363C71.066 27.0096 71.2927 27.6322 71.2927 28.404C71.2927 29.1758 71.066 29.7984 70.6125 30.2718C70.1591 30.7451 69.5809 30.9818 68.8779 30.9818ZM82.8087 32.6798C83.746 32.6798 84.5408 32.5357 85.1929 32.2476C85.8449 31.9594 86.3315 31.5735 86.6524 31.0899C86.9734 30.6062 87.1338 30.066 87.1338 29.4691C87.1338 28.7693 86.953 28.2136 86.5913 27.802C86.2296 27.3904 85.794 27.0843 85.2845 26.8836C84.7751 26.6829 84.123 26.49 83.3283 26.3047C82.7475 26.1607 82.289 26.032 81.9528 25.9188C81.6166 25.8056 81.3389 25.6513 81.1198 25.4558C80.9008 25.2602 80.7913 25.0081 80.7913 24.6994C80.7913 24.2569 80.9823 23.9019 81.3644 23.6343C81.7465 23.3668 82.3298 23.233 83.1143 23.233C83.5932 23.233 84.0874 23.305 84.5968 23.4491C85.1062 23.5932 85.5953 23.8041 86.064 24.082L86.6906 22.5229C86.2321 22.2142 85.687 21.9775 85.0553 21.8129C84.4236 21.6482 83.7817 21.5659 83.1296 21.5659C82.1922 21.5659 81.4 21.71 80.753 21.9981C80.106 22.2863 79.6221 22.6747 79.3011 23.1635C78.9802 23.6523 78.8197 24.1952 78.8197 24.792C78.8197 25.5021 79.0005 26.0655 79.3623 26.4823C79.724 26.899 80.157 27.2052 80.6613 27.4007C81.1657 27.5962 81.8254 27.7917 82.6405 27.9873C83.2213 28.1313 83.6798 28.26 84.016 28.3732C84.3523 28.4863 84.6299 28.6433 84.849 28.8439C85.068 29.0446 85.1776 29.2993 85.1776 29.608C85.1776 30.0299 84.9814 30.3695 84.5892 30.6268C84.1969 30.8841 83.6034 31.0127 82.8087 31.0127C82.1668 31.0127 81.5274 30.9021 80.8906 30.6808C80.2538 30.4596 79.7163 30.174 79.2782 29.8241L78.5905 31.3832C79.0388 31.7742 79.6475 32.0881 80.4168 32.3247C81.1861 32.5614 81.9834 32.6798 82.8087 32.6798ZM92.013 32.6335C92.3696 32.6335 92.7084 32.5872 93.0294 32.4945C93.3503 32.4019 93.6229 32.263 93.847 32.0778L93.3121 30.704C93.0268 30.9304 92.6702 31.0436 92.2423 31.0436C91.8755 31.0436 91.5953 30.9381 91.4017 30.7271C91.2081 30.5162 91.1113 30.21 91.1113 29.8087V25.888H93.2968V24.3444H91.1113V22.4612H89.2009V24.3444H87.856V25.888H89.2009V29.855C89.2009 30.7606 89.4454 31.45 89.9345 31.9234C90.4236 32.3968 91.1164 32.6335 92.013 32.6335ZM98.8332 32.6335C99.6687 32.6335 100.418 32.4534 101.08 32.0932C101.742 31.733 102.259 31.2314 102.631 30.5882C103.003 29.945 103.189 29.217 103.189 28.404C103.189 27.5911 103.003 26.8656 102.631 26.2276C102.259 25.5895 101.742 25.0905 101.08 24.7303C100.418 24.3701 99.6687 24.19 98.8332 24.19C98.0079 24.19 97.2641 24.3701 96.6019 24.7303C95.9396 25.0905 95.4225 25.5895 95.0506 26.2276C94.6787 26.8656 94.4928 27.5911 94.4928 28.404C94.4928 29.217 94.6787 29.945 95.0506 30.5882C95.4225 31.2314 95.9396 31.733 96.6019 32.0932C97.2641 32.4534 98.0079 32.6335 98.8332 32.6335ZM98.8332 30.9818C98.1302 30.9818 97.552 30.7451 97.0986 30.2718C96.6452 29.7984 96.4185 29.1758 96.4185 28.404C96.4185 27.6322 96.6452 27.0096 97.0986 26.5363C97.552 26.0629 98.1302 25.8262 98.8332 25.8262C99.5363 25.8262 100.117 26.0629 100.576 26.5363C101.034 27.0096 101.263 27.6322 101.263 28.404C101.263 29.1758 101.034 29.7984 100.576 30.2718C100.117 30.7451 99.5363 30.9818 98.8332 30.9818ZM106.952 32.5254V28.5275C106.952 27.7043 107.161 27.074 107.579 26.6366C107.997 26.1993 108.578 25.9806 109.321 25.9806C109.454 25.9806 109.602 25.996 109.765 26.0269V24.19C108.379 24.19 107.411 24.6222 106.861 25.4866V24.2826H105.042V32.5254H106.952ZM115.163 32.6335C115.867 32.6335 116.498 32.5203 117.059 32.2939C117.619 32.0675 118.083 31.733 118.449 31.2905L117.425 30.102C116.845 30.6988 116.106 30.9973 115.209 30.9973C114.506 30.9973 113.918 30.8197 113.444 30.4647C112.97 30.1097 112.677 29.6286 112.565 29.0215H118.969C118.989 28.7745 119 28.5841 119 28.4503C119 27.6065 118.824 26.863 118.472 26.2198C118.121 25.5767 117.632 25.0776 117.005 24.7226C116.378 24.3675 115.668 24.19 114.873 24.19C114.068 24.19 113.345 24.3701 112.703 24.7303C112.061 25.0905 111.559 25.5921 111.197 26.2353C110.836 26.8784 110.655 27.6014 110.655 28.404C110.655 29.217 110.841 29.945 111.213 30.5882C111.585 31.2314 112.112 31.733 112.795 32.0932C113.477 32.4534 114.267 32.6335 115.163 32.6335ZM117.181 27.7403H112.55C112.642 27.1331 112.899 26.6469 113.322 26.2816C113.745 25.9163 114.262 25.7336 114.873 25.7336C115.495 25.7336 116.014 25.9188 116.432 26.2893C116.85 26.6598 117.099 27.1434 117.181 27.7403Z" fill="white"/>
<path d="M44.555 17.1561C45.0935 17.1561 45.592 17.066 46.0505 16.886C46.509 16.7059 46.8766 16.4468 47.1531 16.1086C47.4297 15.7705 47.568 15.3773 47.568 14.9289C47.568 14.4658 47.4242 14.0689 47.1367 13.7381C46.8493 13.4074 46.4545 13.1795 45.9523 13.0545C46.3598 12.9296 46.6764 12.7183 46.902 12.4206C47.1276 12.1229 47.2405 11.7682 47.2405 11.3566C47.2405 10.9303 47.1149 10.5591 46.8638 10.243C46.6127 9.92693 46.2725 9.68437 45.8431 9.51531C45.4137 9.34625 44.9407 9.26172 44.424 9.26172C43.5433 9.26172 42.7246 9.48958 41.9677 9.94531L42.2406 10.6179C42.5754 10.4047 42.9284 10.2448 43.2995 10.1383C43.6707 10.0317 44.0382 9.97839 44.4021 9.97839C44.9843 9.97839 45.4683 10.1089 45.854 10.3698C46.2398 10.6307 46.4326 10.9891 46.4326 11.4448C46.4326 11.8564 46.2816 12.178 45.9796 12.4095C45.6775 12.6411 45.2573 12.7568 44.7187 12.7568H43.1249V13.4184H44.7624C45.3955 13.4184 45.8868 13.5397 46.2361 13.7822C46.5855 14.0248 46.7601 14.3703 46.7601 14.8186C46.7601 15.1568 46.6564 15.4489 46.449 15.6952C46.2416 15.9414 45.9632 16.1307 45.6139 16.263C45.2645 16.3953 44.8825 16.4615 44.4676 16.4615C44.031 16.4615 43.5979 16.3861 43.1685 16.2354C42.7391 16.0848 42.3571 15.8661 42.0223 15.5794L41.7275 16.1638C42.1205 16.4945 42.5627 16.7426 43.0539 16.908C43.5452 17.0734 44.0455 17.1561 44.555 17.1561ZM50.9876 17.1451C51.4534 17.1451 51.8555 17.0605 52.1939 16.8915C52.5323 16.7224 52.7889 16.4872 52.9635 16.1858V17.0899H53.7059V13.4956C53.7059 12.7532 53.5057 12.1927 53.1054 11.8142C52.7052 11.4356 52.1302 11.2463 51.3806 11.2463C50.9294 11.2463 50.5 11.3143 50.0924 11.4503C49.6849 11.5863 49.3355 11.7792 49.0444 12.0292L49.3938 12.6135C49.6339 12.4004 49.9214 12.2331 50.2562 12.1118C50.591 11.9906 50.9403 11.9299 51.3042 11.9299C51.8355 11.9299 52.2394 12.0604 52.5159 12.3213C52.7925 12.5823 52.9308 12.9627 52.9308 13.4625V13.8153H51.1077C50.3362 13.8153 49.774 13.966 49.4211 14.2674C49.0681 14.5687 48.8916 14.9657 48.8916 15.4581C48.8916 15.9653 49.0808 16.3733 49.4593 16.682C49.8377 16.9907 50.3472 17.1451 50.9876 17.1451ZM51.1077 16.5276C50.6492 16.5276 50.2926 16.4302 50.0379 16.2354C49.7831 16.0407 49.6558 15.7742 49.6558 15.4361C49.6558 14.7451 50.147 14.3997 51.1295 14.3997H52.9308V15.3479C52.7779 15.7301 52.545 16.0223 52.2321 16.2244C51.9192 16.4265 51.5444 16.5276 51.1077 16.5276ZM56.5578 17.0899V11.9851H59.8437V11.2904H55.7827V17.0899H56.5578ZM61.7569 19.2289V15.9984C61.9971 16.3733 62.3045 16.6581 62.6793 16.8529C63.0542 17.0477 63.4744 17.1451 63.9402 17.1451C64.4861 17.1451 64.9755 17.0219 65.4085 16.7757C65.8415 16.5295 66.1818 16.1821 66.4292 15.7338C66.6767 15.2854 66.8004 14.7709 66.8004 14.1902C66.8004 13.6168 66.6767 13.106 66.4292 12.6576C66.1818 12.2092 65.8397 11.8619 65.4031 11.6157C64.9664 11.3695 64.4788 11.2463 63.9402 11.2463C63.4599 11.2463 63.0287 11.3492 62.6466 11.5551C62.2645 11.7609 61.957 12.0549 61.7241 12.4371V11.2904H60.9818V19.2289H61.7569ZM63.8856 16.4504C63.4781 16.4504 63.1124 16.3567 62.7885 16.1693C62.4647 15.9818 62.2099 15.7154 62.0244 15.3699C61.8388 15.0245 61.746 14.6312 61.746 14.1902C61.746 13.7492 61.8388 13.3577 62.0244 13.016C62.2099 12.6742 62.4647 12.4077 62.7885 12.2166C63.1124 12.0255 63.4781 11.9299 63.8856 11.9299C64.2859 11.9299 64.6498 12.0255 64.9773 12.2166C65.3048 12.4077 65.5613 12.6742 65.7469 13.016C65.9325 13.3577 66.0253 13.7492 66.0253 14.1902C66.0253 14.6312 65.9325 15.0245 65.7469 15.3699C65.5613 15.7154 65.3048 15.9818 64.9773 16.1693C64.6498 16.3567 64.2859 16.4504 63.8856 16.4504ZM68.4188 19.284C68.8482 19.284 69.2157 19.1701 69.5214 18.9422C69.827 18.7144 70.0963 18.3285 70.3292 17.7845L73.2003 11.2904H72.4361L70.2746 16.2189L68.1131 11.2904H67.3053L69.8707 17.0789L69.6196 17.6412C69.4595 17.994 69.2867 18.2439 69.1011 18.391C68.9155 18.538 68.6917 18.6115 68.4297 18.6115C68.0222 18.6115 67.6728 18.4645 67.3817 18.1704L67.0215 18.7548C67.1961 18.9312 67.4035 19.0635 67.6437 19.1517C67.8839 19.2399 68.1422 19.284 68.4188 19.284ZM75.7684 17.1561C76.2415 17.1561 76.6745 17.0844 77.0675 16.9411C77.4605 16.7977 77.7716 16.5938 78.0009 16.3292C78.2301 16.0645 78.3448 15.7632 78.3448 15.4251C78.3448 15.0869 78.2338 14.8003 78.0118 14.5651C77.7898 14.3298 77.4751 14.1645 77.0675 14.0689C77.4096 13.9586 77.6807 13.7896 77.8808 13.5617C78.0809 13.3339 78.181 13.0729 78.181 12.7789C78.181 12.4702 78.0809 12.1982 77.8808 11.963C77.6807 11.7278 77.4041 11.5459 77.0511 11.4172C76.6982 11.2886 76.3033 11.2243 75.8667 11.2243C75.1316 11.2243 74.422 11.4044 73.7379 11.7645L73.9563 12.371C74.5603 12.0549 75.1717 11.8968 75.7903 11.8968C76.2633 11.8968 76.6472 11.9851 76.942 12.1615C77.2367 12.3379 77.3841 12.5804 77.3841 12.8892C77.3841 13.1685 77.2531 13.3908 76.9911 13.5562C76.7291 13.7216 76.3834 13.8043 75.954 13.8043H75.0152V14.3776H75.9977C76.478 14.3776 76.8565 14.464 77.133 14.6367C77.4096 14.8095 77.5478 15.0502 77.5478 15.3589C77.5478 15.7044 77.3786 15.9782 77.0402 16.1803C76.7018 16.3824 76.267 16.4835 75.7357 16.4835C75.3791 16.4835 75.0261 16.4284 74.6768 16.3181C74.3274 16.2079 74.0218 16.0535 73.7598 15.8551L73.4978 16.4394C73.7962 16.6746 74.1455 16.8529 74.5458 16.9742C74.946 17.0954 75.3536 17.1561 75.7684 17.1561ZM80.8147 17.0899L84.6355 12.4812V17.0899H85.4106V11.2904H84.7228L80.8911 15.8992V11.2904H80.116V17.0899H80.8147ZM89.5071 17.0899V11.9851H91.6795V11.2904H86.5596V11.9851H88.732V17.0899H89.5071ZM95.0118 17.1451C95.4703 17.1451 95.8906 17.0642 96.2727 16.9025C96.6548 16.7408 96.9732 16.5056 97.2279 16.1968L96.7912 15.6897C96.5729 15.9396 96.3145 16.1289 96.0161 16.2575C95.7177 16.3861 95.3902 16.4504 95.0336 16.4504C94.4005 16.4504 93.8765 16.2648 93.4616 15.8936C93.0468 15.5224 92.8175 15.0355 92.7739 14.4327H97.5772L97.5881 14.1902C97.5881 13.6168 97.468 13.1078 97.2279 12.6631C96.9877 12.2184 96.6566 11.8711 96.2345 11.6212C95.8123 11.3713 95.3357 11.2463 94.8044 11.2463C94.2731 11.2463 93.7946 11.3713 93.3688 11.6212C92.9431 11.8711 92.6083 12.2203 92.3645 12.6686C92.1207 13.117 91.9988 13.6242 91.9988 14.1902C91.9988 14.7562 92.1261 15.2633 92.3809 15.7117C92.6356 16.1601 92.9904 16.5111 93.4452 16.7647C93.9001 17.0183 94.4223 17.1451 95.0118 17.1451ZM96.8458 13.8484H92.7739C92.8248 13.2751 93.0377 12.8101 93.4125 12.4536C93.7873 12.0971 94.2513 11.9189 94.8044 11.9189C95.3648 11.9189 95.8324 12.0971 96.2072 12.4536C96.582 12.8101 96.7948 13.2751 96.8458 13.8484ZM104.799 17.0899C105.534 17.0899 106.087 16.9539 106.458 16.682C106.829 16.41 107.015 16.0204 107.015 15.5133C107.015 14.7488 106.625 14.2747 105.847 14.091C106.152 13.9807 106.391 13.8135 106.562 13.5893C106.733 13.3651 106.818 13.095 106.818 12.7789C106.818 12.3011 106.633 11.9336 106.261 11.6763C105.89 11.4191 105.377 11.2904 104.722 11.2904H102.189V17.0899H104.799ZM104.668 13.8704H102.943V11.9079H104.668C105.112 11.9079 105.452 11.9887 105.688 12.1504C105.925 12.3121 106.043 12.5547 106.043 12.8781C106.043 13.2015 105.925 13.4478 105.688 13.6168C105.452 13.7859 105.112 13.8704 104.668 13.8704ZM104.766 16.4725H102.943V14.4548H104.842C105.33 14.4548 105.686 14.5375 105.912 14.7029C106.138 14.8683 106.25 15.1237 106.25 15.4692C106.25 15.8146 106.127 16.0682 105.879 16.2299C105.632 16.3916 105.261 16.4725 104.766 16.4725Z" fill="white"/>
</svg>
